# xmcd
#
# Track frame offsets:
# 150
# 14507
# 28395
# 38880
# 51050
# 64975
# 79387
# 91702
# 103950
# 120490
# 137517
# 155400
# 168710
# 182122
#
# Disc length: 2623 seconds
#
#
# Revision: 0
# Processed by: cddbd v1.4PL0 Copyright (c) Steve Scherf et al.
# Submitted via: FreeRIP 2.53 
#
DISCID=c00a3d0e
DTITLE=Sérgio Reis - [CD2) - Raridades
DYEAR=1900
DGENRE=country
TTITLE0=Enganadora
TTITLE1=Será
TTITLE2=Lana
TTITLE3=Porque sou bobo assim (Part of a fool)
TTITLE4=Coração de papel
TTITLE5=Cabecinha no ombro
TTITLE6=Cortando estradão
TTITLE7=Vagabundo
TTITLE8=Brasil poeira
TTITLE9=Boiadeiro errante
TTITLE10=Travessia do rio Araguaia
TTITLE11=Você vai gostar
TTITLE12=Rei do gado
TTITLE13=No mato sem cachorro
EXTD=RIP by Sandro S C
EXTT0=
EXTT1=
EXTT2=
EXTT3=
EXTT4=
EXTT5=
EXTT6=
EXTT7=
EXTT8=
EXTT9=
EXTT10=
EXTT11=
EXTT12=
EXTT13=
PLAYORDER=
